<?xml version="1.0" encoding="UTF-8"?>
<svg xmlns="http://www.w3.org/2000/svg" xmlns:xlink="http://www.w3.org/1999/xlink" width="337.75pt" height="407.87pt" viewBox="0 0 337.75 407.87" version="1.1">
<defs>
<clipPath id="clip1">
  <path d="M 0 61 L 337.75 61 L 337.75 407.871094 L 0 407.871094 Z M 0 61 "/>
</clipPath>
</defs>
<g id="surface1">
<g clip-path="url(#clip1)" clip-rule="nonzero">
<path style=" stroke:none;fill-rule:nonzero;fill:rgb(0%,0%,0%);fill-opacity:1;" d="M 288.933594 174.207031 L 324.511719 146.175781 C 325.296875 145.554688 325.785156 144.648438 325.871094 143.648438 C 325.957031 142.648438 325.628906 141.675781 324.957031 140.933594 L 324.957031 140.929688 L 296.550781 109.433594 L 296.546875 109.433594 L 278.773438 89.730469 L 278.011719 89.417969 C 273.863281 87.734375 268.882813 86.679688 263.640625 85.78125 C 261.417969 85.402344 259.144531 85.054688 256.890625 84.71875 L 262.363281 61.832031 L 258.121094 61.53125 C 256.910156 61.449219 255.722656 61.40625 254.554688 61.410156 C 246.894531 61.417969 240.085938 63.105469 234.914063 65.890625 C 232.328125 67.292969 230.136719 68.976563 228.484375 70.992188 C 226.84375 72.996094 225.71875 75.429688 225.65625 78.101563 L 225.140625 100.902344 C 209.675781 102.105469 190.910156 102.691406 168.875 102.691406 C 146.839844 102.691406 128.070313 102.105469 112.609375 100.902344 L 112.089844 78.097656 C 112.03125 75.429688 110.90625 72.996094 109.265625 70.992188 C 106.777344 67.976563 103.109375 65.675781 98.660156 64.015625 C 94.207031 62.371094 88.9375 61.410156 83.195313 61.410156 C 82.027344 61.410156 80.835938 61.449219 79.625 61.53125 L 75.386719 61.832031 L 80.859375 84.71875 C 80.257813 84.808594 79.660156 84.898438 79.058594 84.988281 C 72.085938 86.0625 65.171875 87.21875 59.738281 89.417969 L 58.972656 89.730469 L 13.71875 139.90625 L 12.792969 140.929688 C 12.121094 141.675781 11.792969 142.648438 11.878906 143.648438 C 11.960938 144.648438 12.449219 145.554688 13.238281 146.175781 L 48.8125 174.207031 C 18.640625 198.988281 0 233.066406 0 270.675781 C 0 346.445313 69.5625 407.871094 168.875 407.871094 C 268.1875 407.871094 337.75 346.445313 337.75 270.675781 C 337.75 233.066406 319.109375 198.988281 288.933594 174.207031 "/>
</g>
<path style=" stroke:none;fill-rule:nonzero;fill:rgb(100%,100%,100%);fill-opacity:1;" d="M 168.875 267.824219 C 168.085938 267.824219 167.296875 267.566406 166.644531 267.050781 L 64.542969 186.601563 C 42.367188 209.460938 28.878906 239.652344 28.878906 272.753906 C 28.878906 344.117188 98.828125 401.972656 168.875 401.972656 C 238.921875 401.972656 308.867188 344.117188 308.867188 272.753906 C 308.867188 239.652344 295.378906 209.460938 273.207031 186.601563 L 171.105469 267.050781 C 170.449219 267.566406 169.664063 267.824219 168.875 267.824219 "/>
<path style=" stroke:none;fill-rule:nonzero;fill:rgb(92.498779%,18.399048%,20.799255%);fill-opacity:1;" d="M 211.648438 108.96875 C 199.046875 109.59375 184.804688 109.898438 168.871094 109.898438 C 152.941406 109.898438 138.699219 109.59375 126.097656 108.96875 C 120.03125 123.585938 116.679688 142.734375 116.679688 168.535156 C 116.679688 190.75 119.90625 209.964844 125.664063 225.585938 L 168.875 259.632813 L 212.082031 225.589844 C 217.84375 209.964844 221.070313 190.75 221.070313 168.535156 C 221.070313 142.734375 217.714844 123.585938 211.648438 108.96875 "/>
<path style=" stroke:none;fill-rule:nonzero;fill:rgb(92.498779%,18.399048%,20.799255%);fill-opacity:1;" d="M 270.226563 179.773438 L 317.023438 142.898438 L 276.03125 97.449219 C 274.085938 98.578125 271.859375 99.59375 269.355469 100.523438 C 273.230469 110.816406 275.449219 122.859375 275.449219 137.089844 C 275.449219 151.808594 273.613281 166.410156 270.226563 179.773438 "/>
<path style=" stroke:none;fill-rule:nonzero;fill:rgb(92.498779%,18.399048%,20.799255%);fill-opacity:1;" d="M 68.394531 100.523438 C 65.890625 99.59375 63.664063 98.578125 61.714844 97.449219 L 20.722656 142.898438 L 67.523438 179.769531 C 64.136719 166.40625 62.296875 151.804688 62.296875 137.089844 C 62.296875 122.859375 64.519531 110.816406 68.394531 100.523438 "/>
<path style=" stroke:none;fill-rule:nonzero;fill:rgb(100%,100%,100%);fill-opacity:1;" d="M 211.648438 108.96875 C 217.714844 123.585938 221.070313 142.734375 221.070313 168.535156 C 221.070313 190.75 217.84375 209.964844 212.082031 225.589844 L 270.226563 179.773438 C 273.613281 166.410156 275.449219 151.804688 275.449219 137.089844 C 275.449219 122.863281 273.230469 110.816406 269.355469 100.523438 C 262.242188 103.164063 252.851563 105.070313 240.957031 106.582031 C 232.457031 107.632813 222.679688 108.421875 211.648438 108.96875 "/>
<path style=" stroke:none;fill-rule:nonzero;fill:rgb(100%,100%,100%);fill-opacity:1;" d="M 116.675781 168.535156 C 116.675781 142.734375 120.03125 123.585938 126.097656 108.96875 C 115.066406 108.421875 105.289063 107.632813 96.789063 106.582031 C 84.894531 105.070313 75.503906 103.164063 68.394531 100.523438 C 64.519531 110.816406 62.296875 122.863281 62.296875 137.089844 C 62.296875 151.804688 64.136719 166.40625 67.523438 179.769531 L 125.664063 225.585938 C 119.902344 209.964844 116.675781 190.75 116.675781 168.535156 "/>
<path style=" stroke:none;fill-rule:nonzero;fill:rgb(100%,100%,100%);fill-opacity:1;" d="M 241.589844 70.777344 C 244.855469 69.566406 248.882813 68.757813 253.324219 68.632813 L 249.738281 83.640625 C 246.644531 83.152344 243.730469 82.640625 241.199219 82.042969 C 238.121094 81.328125 235.613281 80.445313 234.238281 79.597656 C 233.539063 79.179688 233.15625 78.796875 233.011719 78.582031 C 232.878906 78.371094 232.875 78.351563 232.867188 78.210938 C 232.894531 77.507813 233.195313 76.625 234.066406 75.550781 C 235.378906 73.914063 238.015625 72.085938 241.589844 70.777344 "/>
<path style=" stroke:none;fill-rule:nonzero;fill:rgb(100%,100%,100%);fill-opacity:1;" d="M 84.421875 68.632813 C 90.480469 68.800781 95.769531 70.253906 99.40625 72.230469 C 101.347656 73.277344 102.800781 74.46875 103.679688 75.550781 C 104.554688 76.625 104.855469 77.507813 104.882813 78.210938 C 104.863281 78.390625 104.898438 78.414063 104.507813 78.847656 C 103.820313 79.621094 101.398438 80.820313 98.039063 81.671875 C 95.199219 82.429688 91.738281 83.050781 88.011719 83.640625 "/>
<path style=" stroke:none;fill-rule:nonzero;fill:rgb(100%,100%,100%);fill-opacity:1;" d="M 149.71875 206.640625 L 146.765625 206.640625 L 146.765625 204.578125 L 147.238281 204.578125 C 148.628906 204.578125 149.773438 204.367188 150.34375 202.796875 L 152.753906 202.796875 L 152.753906 212.433594 L 149.71875 212.433594 "/>
<path style=" stroke:none;fill-rule:nonzero;fill:rgb(100%,100%,100%);fill-opacity:1;" d="M 162.746094 205.832031 C 162.746094 205.246094 162.148438 204.632813 160.644531 204.632813 C 158.988281 204.632813 158.542969 205.246094 158.542969 205.832031 C 158.542969 206.542969 159.003906 207.140625 160.660156 207.140625 C 162.484375 207.140625 162.746094 206.472656 162.746094 205.832031 M 158.625 209.71875 C 158.808594 210.328125 159.546875 210.59375 160.507813 210.59375 C 162.511719 210.59375 162.945313 209.535156 163.054688 208.351563 C 162.21875 208.894531 161.300781 209.089844 160.074219 209.089844 C 157.816406 209.089844 155.230469 208.546875 155.230469 205.875 C 155.230469 203.882813 156.914063 202.574219 160.4375 202.574219 C 163.695313 202.574219 166.257813 203.519531 166.257813 207.65625 C 166.257813 211.222656 163.933594 212.65625 160.589844 212.65625 C 158.222656 212.65625 155.714844 212.070313 155.367188 209.71875 "/>
<path style=" stroke:none;fill-rule:nonzero;fill:rgb(100%,100%,100%);fill-opacity:1;" d="M 174.082031 204.941406 L 170.515625 208.757813 L 174.082031 208.757813 Z M 174.082031 210.816406 L 167.480469 210.816406 L 167.480469 208.644531 L 172.9375 202.796875 L 176.949219 202.796875 L 176.949219 208.757813 L 178.734375 208.757813 L 178.734375 210.816406 L 176.949219 210.816406 L 176.949219 212.433594 L 174.082031 212.433594 "/>
<path style=" stroke:none;fill-rule:nonzero;fill:rgb(100%,100%,100%);fill-opacity:1;" d="M 183.464844 209.398438 C 183.464844 209.980469 184.0625 210.59375 185.566406 210.59375 C 187.226563 210.59375 187.671875 209.980469 187.671875 209.398438 C 187.671875 208.6875 187.210938 208.089844 185.554688 208.089844 C 183.730469 208.089844 183.464844 208.757813 183.464844 209.398438 M 190.984375 209.355469 C 190.984375 211.347656 189.300781 212.65625 185.777344 212.65625 C 182.515625 212.65625 179.953125 211.710938 179.953125 207.574219 C 179.953125 204.007813 182.28125 202.574219 185.621094 202.574219 C 187.988281 202.574219 190.496094 203.15625 190.84375 205.511719 L 187.585938 205.511719 C 187.40625 204.898438 186.667969 204.632813 185.707031 204.632813 C 183.699219 204.632813 183.269531 205.691406 183.160156 206.875 C 183.992188 206.335938 184.914063 206.136719 186.140625 206.136719 C 188.394531 206.136719 190.984375 206.679688 190.984375 209.355469 "/>
<path style=" stroke:none;fill-rule:nonzero;fill:rgb(92.498779%,18.399048%,20.799255%);fill-opacity:1;" d="M 97.175781 323.101563 L 136.488281 323.101563 L 136.488281 332.5625 L 112.511719 332.5625 L 112.511719 338.488281 L 134.585938 338.488281 L 134.585938 347.949219 L 112.511719 347.949219 L 112.511719 361.921875 L 97.175781 361.921875 "/>
<path style=" stroke:none;fill-rule:nonzero;fill:rgb(92.498779%,18.399048%,20.799255%);fill-opacity:1;" d="M 139.917969 323.101563 L 155.253906 323.101563 L 155.253906 346.589844 C 155.253906 351.59375 158.136719 353.167969 163.136719 353.167969 C 168.140625 353.167969 171.023438 351.59375 171.023438 346.589844 L 171.023438 323.101563 L 186.355469 323.101563 L 186.355469 347.1875 C 186.355469 359.53125 178.90625 363.28125 163.136719 363.28125 C 147.367188 363.28125 139.917969 359.53125 139.917969 347.1875 "/>
<path style=" stroke:none;fill-rule:nonzero;fill:rgb(92.498779%,18.399048%,20.799255%);fill-opacity:1;" d="M 202.019531 345.449219 C 194.515625 344.304688 191.414063 339.957031 191.414063 334.519531 C 191.414063 324.460938 201.257813 321.738281 213.871094 321.738281 C 231.164063 321.738281 238.285156 326.253906 238.832031 334.464844 L 220.996094 334.464844 C 220.996094 332.886719 220.070313 331.90625 218.660156 331.363281 C 217.300781 330.765625 215.558594 330.550781 213.871094 330.550781 C 209.304688 330.550781 207.730469 331.691406 207.730469 333.320313 C 207.730469 334.410156 208.21875 335.117188 209.742188 335.335938 L 228.066406 338.054688 C 235.785156 339.195313 240.570313 342.785156 240.570313 349.363281 C 240.570313 358.824219 232.851563 363.28125 215.613281 363.28125 C 203.8125 363.28125 190.929688 361.652344 190.871094 350.230469 L 209.359375 350.230469 C 209.414063 351.539063 209.902344 352.40625 210.992188 353.007813 C 212.132813 353.550781 213.820313 353.820313 216.210938 353.820313 C 220.996094 353.820313 222.300781 352.515625 222.300781 350.667969 C 222.300781 349.527344 221.59375 348.382813 219.527344 348.058594 "/>
<path style=" stroke:none;fill-rule:nonzero;fill:rgb(0%,0%,0%);fill-opacity:1;" d="M 285.660156 219.035156 C 281.6875 205.707031 276.441406 198.953125 273.976563 197.363281 C 273.976563 197.363281 266.390625 207.957031 266.390625 230.394531 C 266.390625 244.535156 268.652344 255.59375 268.652344 270.253906 C 268.652344 271.894531 268.488281 273.671875 268.445313 275.082031 C 268.40625 276.628906 268.332031 277.828125 269.078125 277.828125 C 270.523438 277.828125 272.132813 269.691406 272.765625 263.316406 C 273.363281 257.324219 273.539063 251.160156 273.539063 248.25 C 273.539063 239.078125 272.121094 234.601563 272.777344 221.824219 C 278.917969 235.992188 287.410156 251.632813 287.410156 264.300781 C 287.410156 277.460938 279.90625 286.726563 270.722656 294.355469 C 251.039063 310.71875 250.636719 304.730469 242.636719 310.820313 C 242.636719 310.820313 246.1875 311.695313 253.449219 311.695313 C 263.945313 311.695313 272.691406 307.890625 278.957031 302.132813 C 289.121094 292.789063 293.632813 278.171875 293.632813 259.605469 C 293.632813 246.613281 288.652344 229.058594 285.660156 219.035156 "/>
<path style=" stroke:none;fill-rule:nonzero;fill:rgb(0%,0%,0%);fill-opacity:1;" d="M 194.046875 284.066406 C 194.046875 284.066406 189.023438 287.617188 185.09375 287.617188 C 183.671875 287.617188 182.488281 287.277344 181.542969 286.074219 C 180.417969 284.640625 179.195313 281.609375 179.195313 279.753906 C 179.195313 275.953125 182.003906 272.875 185.476563 272.875 C 190.210938 272.875 194.511719 277.269531 194.046875 284.066406 M 80.558594 260.429688 C 77.835938 262.28125 73.875 264.464844 73.058594 264.464844 C 70.871094 264.464844 66.339844 259.878906 66.339844 259.117188 C 66.339844 258.835938 68.582031 256.695313 71.796875 255.066406 C 75.011719 253.4375 82.609375 251.199219 85.996094 251.199219 C 87.46875 251.199219 88.660156 252.171875 88.660156 253.261719 C 88.660156 254.195313 84.742188 257.585938 80.558594 260.429688 M 236.558594 219.039063 C 232.585938 205.707031 228.886719 198.464844 226.421875 196.875 C 226.421875 196.875 219.269531 208.011719 219.269531 225.535156 C 219.269531 243.390625 221.355469 258.867188 221.480469 266.484375 C 221.601563 273.679688 221.546875 276.230469 222.382813 276.230469 C 223.578125 276.402344 223.972656 275.492188 224.1875 272.867188 C 224.4375 269.832031 225.167969 265.257813 225.167969 255.921875 C 225.167969 239.867188 224.265625 238.148438 224.265625 223.40625 C 230.40625 237.574219 239.746094 253.300781 239.746094 269.1875 C 239.746094 274.890625 237.832031 279.507813 231.285156 284.308594 C 223.683594 289.878906 218.710938 291.054688 208.214844 291.054688 C 201.089844 291.054688 197.742188 290.804688 196.167969 290.578125 C 199.277344 284.492188 202.890625 276.121094 202.890625 270.089844 C 202.890625 263.269531 197.910156 257.75 191.753906 257.75 C 183.648438 257.75 174.8125 278.003906 171.84375 290.148438 C 170.257813 290.660156 166.871094 291.164063 159.648438 291.164063 C 149.820313 291.164063 145.128906 289.789063 142.015625 286.832031 C 136.519531 281.613281 136.191406 273.441406 132.949219 271.644531 C 126.5625 283.765625 119.109375 291 100.902344 291 C 94.566406 291 90.164063 290.175781 88.054688 287.695313 C 85.589844 284.796875 85.609375 278.925781 84.960938 270.765625 C 92.71875 262.65625 97.898438 252.222656 97.898438 240.441406 C 97.898438 235.609375 96.433594 234.546875 94.621094 234.546875 C 79.964844 234.546875 55.476563 250.1875 55.476563 265.996094 C 55.476563 269.898438 57.632813 273.820313 60.75 276.675781 C 57.355469 281.753906 49.46875 295.175781 49.46875 310.273438 C 49.46875 324.90625 54.613281 334.945313 62.90625 343.671875 C 77.164063 358.671875 109.089844 375.355469 123.503906 379.285156 C 108.867188 373.195313 82.15625 359.378906 68.144531 339.644531 C 62.527344 331.734375 59.625 323.371094 59.625 313.003906 C 59.625 294.628906 72.414063 281.417969 81.761719 273.65625 C 80.96875 279.304688 78.515625 283.300781 78.515625 288.980469 C 78.515625 294.222656 80.570313 299.945313 84.542969 303.210938 C 87.953125 306.015625 90.746094 306.671875 98.9375 306.671875 C 109.128906 306.671875 115.660156 304.691406 120.46875 300.03125 C 124.878906 295.753906 125.089844 290.835938 126.671875 290.835938 C 128.933594 290.835938 129.414063 296.660156 133.339844 300.492188 C 138.246094 305.28125 144.34375 306.613281 154.816406 306.613281 C 168.351563 306.613281 179.304688 302.410156 179.304688 302.410156 C 187.820313 306.5625 191.222656 306.5625 205.949219 306.5625 C 218.398438 306.5625 226.953125 306.714844 236.566406 290.667969 C 240.917969 283.398438 245.585938 271.632813 245.585938 259.605469 C 245.585938 249.613281 239.546875 229.0625 236.558594 219.039063 "/>
<path style=" stroke:none;fill-rule:nonzero;fill:rgb(100%,100%,100%);fill-opacity:1;" d="M 205.960938 239.117188 C 202.53125 235.6875 199.277344 233.074219 195.085938 230.378906 L 193.199219 229.164063 L 191.796875 230.914063 C 191.054688 231.84375 190.234375 232.753906 189.371094 233.71875 C 186.964844 236.398438 184.476563 239.171875 183.328125 242.667969 L 182.765625 244.375 L 184.207031 245.445313 C 187.875 248.164063 191.164063 250.804688 194.265625 253.511719 L 195.988281 255.015625 L 197.632813 253.425781 C 200.238281 250.902344 204.855469 246.035156 206.519531 241.789063 L 207.113281 240.269531 "/>
<path style=" stroke:none;fill-rule:nonzero;fill:rgb(100%,100%,100%);fill-opacity:1;" d="M 150.464844 245.542969 C 148.453125 242.953125 146.371094 240.273438 143.71875 239.261719 L 142.238281 238.699219 L 141.101563 239.800781 L 131.574219 249.03125 L 129.421875 251.117188 L 131.863281 252.851563 C 133.777344 254.210938 135.007813 255.707031 136.3125 257.289063 C 137.609375 258.867188 138.953125 260.5 140.984375 262.070313 L 142.4375 263.191406 L 143.9375 262.132813 C 144.140625 261.992188 148.964844 258.558594 153.503906 252.019531 L 154.691406 250.308594 L 153.21875 248.839844 C 152.332031 247.953125 151.425781 246.78125 150.464844 245.542969 "/>
<path style=" stroke:none;fill-rule:nonzero;fill:rgb(0%,0%,0%);fill-opacity:1;" d="M 185.691406 243.445313 C 187.058594 239.296875 190.902344 236.019531 193.742188 232.472656 C 198.027344 235.230469 201.0625 237.738281 204.203125 240.878906 C 202.863281 244.289063 198.988281 248.648438 195.902344 251.636719 C 192.464844 248.632813 189.007813 245.902344 185.691406 243.445313 "/>
<path style=" stroke:none;fill-rule:nonzero;fill:rgb(0%,0%,0%);fill-opacity:1;" d="M 151.460938 250.597656 C 148.621094 247.757813 145.917969 242.761719 142.832031 241.589844 L 133.304688 250.820313 C 137.457031 253.769531 138.683594 257.148438 142.503906 260.097656 C 142.503906 260.097656 147.117188 256.851563 151.460938 250.597656 "/>
<path style=" stroke:none;fill-rule:nonzero;fill:rgb(0%,0%,0%);fill-opacity:1;" d="M 131.039063 250.980469 C 129.546875 247.796875 125.453125 245.027344 123.886719 242.519531 C 118.101563 245.957031 113.84375 251.144531 113.84375 251.144531 C 117.773438 257.476563 121.484375 260.371094 121.484375 260.371094 C 127.925781 256.65625 128.117188 252.046875 133.933594 250.980469 "/>
<path style=" stroke:none;fill-rule:nonzero;fill:rgb(100%,100%,100%);fill-opacity:1;" d="M 165.613281 150.476563 L 164.835938 152.769531 L 194.269531 152.769531 L 180.515625 162.929688 L 181.289063 165.210938 L 201.230469 150.476563 "/>
<path style=" stroke:none;fill-rule:nonzero;fill:rgb(100%,100%,100%);fill-opacity:1;" d="M 177.96875 167.660156 L 177.195313 165.382813 L 153.824219 182.644531 L 158.8125 167.964844 L 156.875 166.53125 L 149.300781 188.839844 "/>
<path style=" stroke:none;fill-rule:nonzero;fill:rgb(100%,100%,100%);fill-opacity:1;" d="M 166.253906 172.445313 L 168.183594 171.019531 L 143.480469 152.769531 L 160.683594 152.769531 L 161.464844 150.476563 L 136.515625 150.476563 "/>
<path style=" stroke:none;fill-rule:nonzero;fill:rgb(100%,100%,100%);fill-opacity:1;" d="M 158.199219 162.625 L 160.136719 164.054688 L 168.875 138.320313 L 172.722656 149.65625 L 175.140625 149.65625 L 168.871094 131.191406 "/>
<path style=" stroke:none;fill-rule:nonzero;fill:rgb(100%,100%,100%);fill-opacity:1;" d="M 180.597656 165.71875 L 176.476563 153.589844 L 174.054688 153.589844 L 183.921875 182.644531 L 171.492188 173.464844 L 169.5625 174.890625 L 188.445313 188.839844 "/>
<path style=" stroke:none;fill-rule:nonzero;fill:rgb(92.498779%,18.399048%,20.799255%);fill-opacity:1;" d="M 132.285156 66.113281 C 131.820313 67.199219 130.835938 68.398438 131.054688 69.992188 C 131.230469 71.269531 132.28125 71.273438 133.5625 71.566406 C 134.132813 71.695313 135.183594 71.746094 135.429688 72.054688 C 135.648438 72.339844 135.554688 72.753906 135.429688 73.285156 C 135.117188 74.621094 134.800781 75.910156 134.984375 77.214844 C 136.691406 77.484375 137.804688 76.542969 138.816406 75.691406 C 139.15625 75.40625 139.542969 74.910156 139.851563 74.855469 C 140.304688 74.777344 141.171875 75.035156 141.765625 75.101563 C 143.78125 75.332031 145.859375 75.617188 147.859375 75.199219 C 148.039063 74.605469 148.472656 74.019531 148.300781 73.234375 C 147.050781 72.734375 145.476563 72.554688 144.519531 71.761719 C 144.902344 70.625 145.59375 69.09375 145.550781 67.683594 C 145.5 66.070313 144.398438 66.183594 143.339844 65.570313 C 142.914063 65.328125 142.699219 65.070313 142.40625 64.636719 C 141.730469 64.390625 141.007813 64.257813 140.832031 63.605469 C 140.746094 63.292969 140.863281 62.746094 140.882813 62.328125 C 141.03125 58.910156 139.96875 56.535156 139.0625 53.4375 C 138.230469 50.578125 138.167969 47.207031 136.558594 45.230469 C 136.308594 44.921875 135.84375 44.523438 135.574219 44.394531 C 133.910156 43.597656 132.199219 44.890625 131.203125 45.769531 C 130.441406 46.445313 129.625 47.179688 129.1875 47.882813 C 128.816406 48.484375 128.566406 49.25 128.304688 49.898438 C 128.03125 50.570313 127.730469 51.238281 127.519531 52.011719 C 125.816406 58.191406 129.039063 63.417969 132.285156 66.113281 M 144.789063 86.59375 C 147.660156 85.796875 149.921875 84.820313 149.921875 83.898438 C 149.921875 83.085938 147.800781 81.546875 145.785156 81.167969 C 142.714844 81.167969 140.710938 82.867188 140.226563 83.886719 C 140.4375 85.058594 142.191406 86.253906 144.789063 86.59375 M 152.574219 68.421875 C 153.027344 68.886719 153.574219 69.257813 153.949219 69.796875 C 153.207031 70.898438 151.515625 71.871094 152.082031 73.824219 C 152.230469 74.324219 152.945313 74.980469 153.507813 75.300781 C 154.59375 75.914063 156.359375 75.726563 157.242188 74.957031 C 157.507813 74.726563 157.570313 74.429688 157.683594 74.269531 C 158.324219 73.359375 159.476563 72.925781 161.074219 73.039063 C 162.277344 73.125 163.277344 73.761719 164.316406 73.824219 C 166.4375 73.953125 166.910156 71.851563 167.167969 70.140625 C 166.710938 69.679688 165.878906 69.496094 165.351563 69.011719 C 165.085938 68.769531 164.636719 68.167969 164.664063 67.734375 C 164.695313 67.210938 165.496094 66.699219 165.839844 66.359375 C 166.535156 65.664063 167.699219 64.824219 167.414063 63.507813 C 167.195313 62.503906 165.753906 61.964844 165.105469 61.394531 C 164.820313 61.148438 164.613281 60.816406 164.367188 60.609375 C 163.746094 60.085938 162.722656 59.667969 162.648438 58.691406 C 162.589844 57.90625 163.183594 56.773438 163.433594 55.992188 C 164.296875 53.277344 164.886719 50.402344 164.613281 46.804688 C 164.378906 43.714844 163.460938 40.898438 162.351563 38.597656 C 161.976563 37.8125 161.613281 36.949219 161.125 36.339844 C 160.585938 35.667969 159.59375 34.992188 158.71875 34.421875 C 157.664063 33.738281 156.140625 32.820313 154.441406 33.195313 C 151.53125 33.832031 150.5625 36.4375 149.136719 38.550781 C 147.492188 40.984375 147.085938 44.546875 147.515625 48.277344 C 147.6875 49.765625 147.847656 51.046875 148.253906 52.207031 C 149.445313 55.65625 151.726563 58.261719 153.605469 61.003906 C 153.179688 62.015625 152.082031 63.183594 151.542969 64.441406 C 150.949219 65.828125 150.414063 68.582031 152.574219 68.421875 M 156.507813 85.46875 C 159.734375 85.96875 159.046875 80.621094 156.308594 81.144531 C 154.351563 81.519531 154.992188 85.234375 156.507813 85.46875 M 168.875 85.289063 C 170.570313 85.289063 172.761719 84.277344 172.761719 83.023438 C 172.761719 82.058594 171.023438 80.535156 168.875 80.535156 C 166.726563 80.535156 164.988281 82.058594 164.988281 83.023438 C 164.988281 84.277344 167.179688 85.289063 168.875 85.289063 M 176.671875 73.039063 C 178.273438 72.925781 179.425781 73.359375 180.0625 74.269531 C 180.175781 74.429688 180.242188 74.726563 180.503906 74.957031 C 181.386719 75.726563 183.15625 75.914063 184.238281 75.300781 C 184.804688 74.980469 185.519531 74.324219 185.664063 73.824219 C 186.230469 71.871094 184.542969 70.898438 183.796875 69.796875 C 184.171875 69.257813 184.71875 68.886719 185.171875 68.421875 C 187.335938 68.582031 186.800781 65.828125 186.203125 64.441406 C 185.664063 63.183594 184.566406 62.015625 184.140625 61.003906 C 186.023438 58.261719 188.300781 55.65625 189.496094 52.207031 C 189.898438 51.046875 190.0625 49.765625 190.234375 48.277344 C 190.664063 44.546875 190.253906 40.984375 188.613281 38.550781 C 187.1875 36.4375 186.214844 33.832031 183.304688 33.195313 C 181.609375 32.820313 180.082031 33.738281 179.03125 34.421875 C 178.152344 34.992188 177.160156 35.667969 176.625 36.339844 C 176.132813 36.949219 175.773438 37.8125 175.394531 38.597656 C 174.289063 40.898438 173.371094 43.714844 173.136719 46.804688 C 172.859375 50.402344 173.449219 53.277344 174.316406 55.992188 C 174.5625 56.773438 175.160156 57.90625 175.101563 58.691406 C 175.027344 59.667969 174 60.085938 173.378906 60.609375 C 173.136719 60.816406 172.929688 61.148438 172.644531 61.394531 C 171.992188 61.964844 170.554688 62.503906 170.335938 63.507813 C 170.050781 64.824219 171.214844 65.664063 171.90625 66.359375 C 172.25 66.699219 173.054688 67.210938 173.085938 67.734375 C 173.113281 68.167969 172.660156 68.769531 172.398438 69.011719 C 171.871094 69.496094 171.035156 69.679688 170.582031 70.140625 C 170.839844 71.851563 171.308594 73.953125 173.429688 73.824219 C 174.472656 73.761719 175.46875 73.125 176.671875 73.039063 M 181.242188 85.46875 C 182.753906 85.234375 183.394531 81.519531 181.4375 81.144531 C 178.703125 80.621094 178.015625 85.96875 181.242188 85.46875 M 192.960938 86.59375 C 195.558594 86.253906 197.3125 85.058594 197.519531 83.886719 C 197.039063 82.867188 195.035156 81.167969 191.960938 81.167969 C 189.949219 81.546875 187.828125 83.085938 187.828125 83.898438 C 187.828125 84.820313 190.085938 85.796875 192.960938 86.59375 M 197.898438 74.855469 C 198.203125 74.910156 198.589844 75.40625 198.929688 75.691406 C 199.941406 76.542969 201.058594 77.484375 202.761719 77.214844 C 202.945313 75.910156 202.632813 74.621094 202.320313 73.285156 C 202.195313 72.753906 202.097656 72.339844 202.320313 72.054688 C 202.5625 71.746094 203.617188 71.695313 204.1875 71.566406 C 205.46875 71.273438 206.515625 71.269531 206.691406 69.992188 C 206.910156 68.398438 205.929688 67.199219 205.464844 66.113281 C 208.707031 63.417969 211.933594 58.191406 210.230469 52.011719 C 210.015625 51.238281 209.71875 50.570313 209.445313 49.898438 C 209.179688 49.25 208.933594 48.484375 208.558594 47.882813 C 208.121094 47.179688 207.308594 46.445313 206.546875 45.769531 C 205.546875 44.890625 203.839844 43.597656 202.171875 44.394531 C 201.902344 44.523438 201.441406 44.921875 201.1875 45.230469 C 199.582031 47.207031 199.515625 50.578125 198.683594 53.4375 C 197.777344 56.535156 196.714844 58.910156 196.867188 62.328125 C 196.882813 62.746094 197 63.292969 196.914063 63.605469 C 196.738281 64.257813 196.019531 64.390625 195.34375 64.636719 C 195.046875 65.070313 194.832031 65.328125 194.410156 65.570313 C 193.347656 66.183594 192.25 66.070313 192.199219 67.683594 C 192.152344 69.09375 192.84375 70.625 193.230469 71.761719 C 192.269531 72.554688 190.699219 72.734375 189.445313 73.234375 C 189.273438 74.019531 189.710938 74.605469 189.890625 75.199219 C 191.890625 75.617188 193.96875 75.332031 195.980469 75.101563 C 196.578125 75.035156 197.445313 74.777344 197.898438 74.855469 M 117.101563 55.941406 C 116.65625 54.933594 115.886719 53.9375 116.21875 52.550781 C 116.316406 52.148438 116.636719 51.777344 116.855469 51.324219 C 117.421875 50.15625 117.894531 48.585938 118.476563 47.492188 C 118.40625 43.816406 122.8125 44.621094 122.851563 41.054688 C 125.042969 41.308594 125.773438 39.8125 127.027344 38.941406 C 127.792969 38.410156 128.636719 37.929688 129.730469 37.859375 C 130.027344 37.84375 130.40625 38.007813 130.859375 37.960938 C 131.234375 37.917969 131.839844 37.414063 132.382813 37.222656 C 134.832031 36.359375 138.035156 36.578125 138.71875 33.929688 C 140.597656 33.1875 141.371094 31.339844 142.503906 29.851563 C 143.160156 29.765625 143.828125 29.964844 144.519531 29.851563 C 145.410156 29.707031 145.960938 28.859375 146.628906 28.425781 C 147.613281 27.792969 148.78125 27.414063 150.019531 27.003906 C 151.246094 26.597656 152.621094 26.242188 154.195313 26.167969 C 158.214844 25.976563 161.191406 27.605469 162.894531 29.851563 C 163.773438 31.011719 164.695313 32.160156 165.644531 33.292969 C 166.570313 34.398438 167.5 35.644531 168.875 36.289063 C 170.25 35.644531 171.175781 34.398438 172.101563 33.292969 C 173.050781 32.160156 173.976563 31.011719 174.855469 29.851563 C 176.554688 27.605469 179.535156 25.976563 183.550781 26.167969 C 185.128906 26.242188 186.5 26.597656 187.726563 27.003906 C 188.964844 27.414063 190.132813 27.792969 191.117188 28.425781 C 191.789063 28.859375 192.339844 29.707031 193.230469 29.851563 C 193.917969 29.964844 194.589844 29.765625 195.242188 29.851563 C 196.378906 31.339844 197.152344 33.1875 199.027344 33.929688 C 199.710938 36.578125 202.917969 36.359375 205.367188 37.222656 C 205.910156 37.414063 206.511719 37.917969 206.886719 37.960938 C 207.34375 38.007813 207.722656 37.84375 208.019531 37.859375 C 209.113281 37.929688 209.953125 38.410156 210.722656 38.941406 C 211.976563 39.8125 212.707031 41.308594 214.898438 41.054688 C 214.933594 44.621094 219.339844 43.816406 219.269531 47.492188 C 219.855469 48.585938 220.328125 50.15625 220.890625 51.324219 C 221.109375 51.777344 221.433594 52.148438 221.53125 52.550781 C 221.863281 53.9375 221.089844 54.933594 220.644531 55.941406 C 221.09375 56.769531 222.054688 58.191406 221.53125 59.578125 C 221.363281 60.023438 220.519531 60.632813 220.253906 61.199219 C 219.558594 62.6875 220.253906 64.773438 219.710938 66.160156 C 219.335938 67.121094 218.492188 67.503906 217.601563 67.78125 C 217.257813 69.207031 216.808594 70.527344 215.632813 71.121094 C 212.792969 70.308594 210.871094 71.90625 210.476563 74.171875 C 205.042969 75.910156 203.171875 81.214844 201.730469 86.945313 L 200.207031 88.023438 L 137.539063 88.023438 L 136.019531 86.945313 C 134.574219 81.214844 132.707031 75.910156 127.273438 74.171875 C 126.875 71.90625 124.953125 70.308594 122.113281 71.121094 C 120.941406 70.527344 120.492188 69.207031 120.148438 67.78125 C 119.257813 67.503906 118.410156 67.121094 118.035156 66.160156 C 117.492188 64.773438 118.191406 62.6875 117.496094 61.199219 C 117.230469 60.632813 116.386719 60.023438 116.21875 59.578125 C 115.695313 58.191406 116.652344 56.769531 117.101563 55.941406 "/>
<path style=" stroke:none;fill-rule:nonzero;fill:rgb(92.498779%,18.399048%,20.799255%);fill-opacity:1;" d="M 200.523438 91.636719 L 137.226563 91.636719 C 136.414063 91.636719 135.753906 92.605469 135.753906 93.804688 C 135.753906 95.003906 136.414063 95.976563 137.226563 95.976563 L 200.523438 95.976563 C 201.335938 95.976563 201.996094 95.003906 201.996094 93.804688 C 201.996094 92.605469 201.335938 91.636719 200.523438 91.636719 "/>
<path style=" stroke:none;fill-rule:nonzero;fill:rgb(92.498779%,18.399048%,20.799255%);fill-opacity:1;" d="M 170.296875 14.253906 L 171.613281 13.289063 L 172.484375 15.855469 Z M 166.136719 13.289063 L 167.449219 14.253906 L 165.265625 15.855469 Z M 162.816406 8.769531 L 165.894531 8.769531 L 165.28125 10.574219 Z M 167.671875 8.769531 L 170.074219 8.769531 L 171.042969 11.617188 L 169.160156 13 C 169.070313 12.917969 168.972656 12.867188 168.875 12.867188 C 168.777344 12.867188 168.679688 12.917969 168.585938 13 L 166.703125 11.617188 Z M 168.875 5.230469 L 169.503906 7.089844 L 168.242188 7.089844 Z M 174.929688 8.769531 L 172.46875 10.574219 L 171.851563 8.769531 Z M 173.035156 12.246094 L 180.074219 7.089844 L 171.28125 7.089844 L 168.875 0 L 166.464844 7.089844 L 157.675781 7.089844 L 164.714844 12.246094 L 161.953125 20.367188 L 167.429688 16.355469 C 166.898438 18.371094 165.632813 20.402344 165.632813 22.773438 C 165.632813 23.933594 165.914063 24.46875 165.914063 24.867188 C 165.914063 25.902344 165.054688 26.433594 163.785156 26.742188 L 168.875 32.441406 L 173.964844 26.742188 C 172.695313 26.433594 171.832031 25.902344 171.832031 24.867188 C 171.832031 24.46875 172.117188 23.933594 172.117188 22.773438 C 172.117188 20.402344 170.851563 18.371094 170.320313 16.355469 L 175.796875 20.367188 "/>
</g>
</svg>
