<?xml version="1.0" encoding="UTF-8"?>
<svg xmlns="http://www.w3.org/2000/svg" xmlns:xlink="http://www.w3.org/1999/xlink" width="346.75pt" height="381.62pt" viewBox="0 0 346.75 381.62" version="1.1">
<g id="surface1">
<path style=" stroke:none;fill-rule:nonzero;fill:rgb(0.392151%,53.709412%,36.083984%);fill-opacity:1;" d="M 127.070313 19.902344 C 143.367188 15.703125 159.46875 9.605469 173.367188 0.00390625 C 188.867188 10.703125 207.070313 17.105469 225.367188 21.304688 C 237.769531 24.105469 250.570313 25.605469 263.367188 26.003906 C 275.269531 27.003906 287.269531 25.605469 299.167969 24.203125 C 315.167969 21.402344 331.46875 16.304688 343.769531 5.304688 C 347.070313 36.503906 347.667969 68.003906 345.367188 99.203125 C 344.269531 110.402344 343.96875 121.605469 341.96875 132.605469 C 338.070313 162.304688 330.96875 191.503906 320.269531 219.503906 C 315.96875 231.105469 310.570313 242.203125 305.46875 253.402344 C 290.769531 282.105469 271.46875 308.605469 247.867188 330.703125 C 227.570313 351.304688 203.667969 368.203125 177.46875 380.605469 C 176.269531 380.902344 174.96875 382.105469 173.667969 381.402344 C 127.667969 360.203125 87.570313 326.304688 59.367188 284.203125 C 51.269531 271.605469 43.269531 259.003906 37.46875 245.105469 C 25.167969 219.703125 16.367188 192.703125 10.367188 165.105469 C 1.867188 125.804688 -0.730469 85.402344 0.167969 45.203125 C 1.167969 31.902344 0.96875 18.503906 2.769531 5.304688 C 15.46875 16.503906 32.167969 21.703125 48.570313 24.402344 C 60.070313 25.703125 71.769531 27.003906 83.367188 26.003906 C 98.070313 25.503906 112.769531 23.503906 127.070313 19.902344 "/>
<path style=" stroke:none;fill-rule:nonzero;fill:rgb(99.21875%,99.609375%,99.21875%);fill-opacity:1;" d="M 86.570313 53.203125 C 86.367188 46.402344 91.769531 38.402344 99.269531 39.605469 C 100.96875 42.304688 100.667969 45.902344 101.070313 49.003906 C 97.96875 49.203125 93.570313 49.203125 93.167969 53.304688 C 92.867188 60.503906 98.867188 65.503906 103.269531 70.304688 C 108.867188 76.804688 115.46875 83.402344 116.667969 92.203125 C 116.667969 101.804688 112.367188 112.203125 103.269531 116.304688 C 91.167969 121.902344 76.96875 122.304688 64.167969 118.703125 C 52.667969 115.402344 41.46875 110.304688 32.269531 102.605469 C 35.570313 102.804688 38.867188 102.902344 42.070313 102.402344 C 34.570313 92.902344 29.070313 81.503906 28.867188 69.203125 C 28.667969 64.703125 29.667969 60.402344 30.367188 56.003906 C 31.367188 57.304688 32.46875 58.605469 33.46875 59.902344 C 34.667969 60.003906 35.867188 60.003906 37.070313 60.105469 C 37.769531 54.105469 39.46875 48.105469 43.769531 43.804688 C 43.570313 54.902344 44.867188 66.804688 51.269531 76.304688 C 52.867188 79.105469 55.96875 80.003906 58.867188 80.203125 C 58.070313 72.003906 59.167969 62.304688 66.46875 57.402344 C 66.46875 61.902344 66.269531 66.804688 68.867188 70.703125 C 73.367188 77.902344 81.667969 82.003906 89.867188 83.605469 C 92.367188 84.203125 95.269531 84.605469 96.769531 87.003906 C 97.667969 90.402344 96.96875 94.105469 97.070313 97.605469 C 102.367188 93.105469 104.269531 84.605469 99.367188 79.105469 C 93.070313 71.703125 86.46875 63.402344 86.570313 53.203125 "/>
<path style=" stroke:none;fill-rule:nonzero;fill:rgb(99.21875%,99.609375%,99.21875%);fill-opacity:1;" d="M 245.667969 49.003906 C 245.96875 45.804688 246.667969 42.605469 246.96875 39.402344 C 250.167969 39.503906 253.867188 39.804688 255.96875 42.703125 C 261.769531 48.402344 260.667969 57.503906 257.667969 64.402344 C 254.96875 70.902344 249.367188 75.605469 245.667969 81.503906 C 243.96875 84.203125 244.570313 87.703125 244.769531 90.804688 C 245.867188 93.503906 247.96875 95.605469 249.867188 97.703125 C 249.867188 93.605469 247.867188 88.402344 251.570313 85.304688 C 254.867188 83.503906 258.867188 83.503906 262.46875 82.105469 C 269.070313 79.605469 275.769531 75.503906 278.769531 68.703125 C 280.570313 65.203125 280.070313 61.203125 280.167969 57.402344 C 282.867188 59.503906 285.167969 62.105469 286.367188 65.304688 C 288.570313 69.902344 287.667969 75.203125 287.867188 80.203125 C 289.96875 79.703125 292.570313 79.804688 294.070313 77.902344 C 299.269531 72.304688 300.769531 64.503906 302.167969 57.304688 C 303.167969 52.902344 302.867188 48.304688 302.96875 43.902344 C 307.269531 48.203125 308.96875 54.203125 309.867188 60.105469 C 310.96875 60.003906 312.070313 60.003906 313.167969 60.003906 C 314.269531 58.605469 315.269531 57.203125 316.367188 55.902344 C 320.769531 72.203125 315.269531 89.804688 304.367188 102.402344 C 307.769531 102.804688 311.070313 102.804688 314.46875 102.503906 C 305.269531 110.304688 294.070313 115.402344 282.46875 118.703125 C 269.96875 122.304688 256.070313 121.902344 244.070313 116.605469 C 234.367188 112.503906 229.570313 101.402344 230.167969 91.304688 C 231.667969 83.105469 237.769531 76.902344 242.96875 70.804688 C 247.46875 65.804688 253.570313 60.804688 253.667969 53.503906 C 253.167969 49.605469 248.867188 49.003906 245.667969 49.003906 "/>
<path style=" stroke:none;fill-rule:nonzero;fill:rgb(99.21875%,99.609375%,99.21875%);fill-opacity:1;" d="M 234.867188 193.703125 C 242.867188 186.703125 254.269531 186.105469 264.269531 187.402344 C 273.769531 188.605469 281.367188 195.902344 284.867188 204.503906 C 280.269531 204.503906 275.667969 204.503906 271.070313 204.605469 C 269.367188 200.902344 267.167969 197.105469 263.269531 195.402344 C 257.769531 191.902344 250.367188 194.503906 246.46875 199.304688 C 241.46875 206.105469 241.667969 216.203125 246.769531 222.804688 C 251.367188 228.703125 260.96875 229.203125 266.367188 224.203125 C 269.070313 221.703125 269.96875 218.003906 270.867188 214.503906 C 275.570313 214.605469 280.167969 214.605469 284.769531 214.605469 C 282.769531 223.003906 276.96875 231.203125 268.269531 233.402344 C 259.269531 235.703125 249.367188 235.402344 240.769531 231.902344 C 226.667969 225.402344 223.769531 204.203125 234.867188 193.703125 "/>
<path style=" stroke:none;fill-rule:nonzero;fill:rgb(99.21875%,99.609375%,99.21875%);fill-opacity:1;" d="M 167.269531 215.304688 C 169.070313 210.003906 171.46875 204.902344 173.46875 199.703125 C 175.769531 205.003906 178.070313 210.203125 180.167969 215.402344 C 175.867188 215.402344 171.570313 215.402344 167.269531 215.304688 M 180.667969 188.804688 C 175.867188 188.902344 170.96875 188.902344 166.167969 188.902344 C 158.96875 203.804688 151.867188 218.804688 144.46875 233.703125 C 149.769531 233.703125 155.070313 233.703125 160.367188 233.605469 C 161.367188 230.203125 162.769531 226.902344 164.269531 223.703125 C 170.269531 223.804688 176.367188 223.503906 182.367188 223.703125 C 184.769531 226.503906 185.367188 230.402344 187.070313 233.703125 C 192.367188 233.605469 197.667969 233.703125 202.96875 233.703125 C 195.667969 218.703125 188.167969 203.703125 180.667969 188.804688 "/>
<path style=" stroke:none;fill-rule:nonzero;fill:rgb(99.21875%,99.609375%,99.21875%);fill-opacity:1;" d="M 64.867188 188.902344 L 78.667969 188.902344 L 78.667969 206.902344 C 82.867188 202.703125 87.570313 198.902344 91.867188 194.703125 C 94.070313 192.804688 96.167969 190.703125 98.667969 189.105469 C 103.667969 188.503906 108.867188 189.003906 113.96875 189.003906 C 106.867188 195.503906 99.46875 201.605469 92.269531 208.003906 C 100.46875 216.402344 108.269531 225.105469 116.269531 233.605469 C 111.269531 233.703125 106.269531 233.804688 101.269531 233.605469 C 99.769531 233.804688 98.867188 232.503906 97.96875 231.605469 C 93.167969 225.902344 87.867188 220.605469 83.070313 214.804688 C 81.667969 216.105469 80.167969 217.304688 78.867188 218.804688 C 78.269531 223.703125 78.867188 228.703125 78.667969 233.703125 C 74.070313 233.703125 69.46875 233.605469 64.867188 233.703125 "/>
<path style=" stroke:none;fill-rule:nonzero;fill:rgb(99.21875%,99.609375%,99.21875%);fill-opacity:1;" d="M 343.367188 105.304688 C 341.367188 126.605469 338.667969 147.902344 333.867188 168.703125 C 333.769531 167.203125 333.667969 165.703125 333.667969 164.203125 L 333.667969 14.605469 C 336.769531 12.804688 339.867188 10.703125 342.667969 8.402344 C 343.769531 18.304688 343.96875 28.203125 344.570313 38.203125 C 344.96875 60.605469 345.269531 83.003906 343.367188 105.304688 M 273.667969 298.304688 C 273.769531 299.703125 273.167969 301.003906 272.269531 302.105469 C 262.96875 314.003906 252.167969 324.703125 241.367188 335.203125 C 232.269531 343.605469 222.667969 351.402344 212.570313 358.605469 C 211.667969 350.902344 211.96875 343.003906 212.070313 335.203125 C 212.96875 331.804688 215.570313 329.105469 216.867188 325.804688 C 221.867188 314.902344 222.367188 302.003906 218.769531 290.605469 C 217.269531 285.804688 214.367188 281.605469 212.167969 277.105469 C 211.667969 269.304688 212.167969 261.503906 211.96875 253.804688 L 273.667969 253.804688 C 273.570313 268.605469 273.667969 283.402344 273.667969 298.304688 M 133.570313 274.304688 C 133.667969 277.304688 131.769531 279.703125 130.367188 282.105469 C 123.167969 294.402344 122.167969 310.105469 127.367188 323.304688 C 128.769531 327.304688 131.367188 330.605469 133.070313 334.402344 C 133.367188 341.804688 133.167969 349.203125 133.070313 356.703125 C 111.46875 341.703125 91.96875 323.605469 75.269531 303.203125 C 74.167969 301.804688 72.867188 300.203125 73.070313 298.304688 C 73.070313 283.402344 73.167969 268.605469 73.070313 253.804688 L 133.570313 253.804688 C 133.46875 260.605469 133.667969 267.402344 133.570313 274.304688 M 4.070313 8.503906 C 6.867188 10.703125 9.96875 12.804688 13.070313 14.605469 L 13.070313 164.203125 C 13.070313 165.703125 12.96875 167.203125 12.769531 168.703125 C 1.269531 116.203125 -0.632813 61.902344 4.070313 8.503906 M 168.070313 115.304688 C 164.269531 102.503906 169.769531 89.804688 173.367188 77.703125 C 176.367188 88.304688 181.167969 98.902344 179.667969 110.203125 C 178.867188 114.402344 178.167969 119.304688 174.269531 121.703125 C 170.769531 122.304688 168.96875 118.003906 168.070313 115.304688 M 153.367188 116.804688 C 150.667969 117.703125 148.867188 114.503906 148.96875 112.203125 C 148.867188 105.203125 152.367188 98.902344 155.769531 93.003906 C 150.46875 97.703125 144.667969 103.003906 137.269531 103.703125 C 134.867188 104.304688 131.96875 102.105469 132.96875 99.503906 C 135.167969 92.203125 141.46875 87.105469 147.867188 83.605469 C 154.46875 80.503906 161.167969 77.804688 167.96875 75.402344 C 164.167969 81.203125 159.96875 86.703125 156.070313 92.402344 C 161.070313 87.503906 165.46875 82.105469 170.367188 77.105469 C 168.46875 87.402344 168.167969 98.402344 162.769531 107.703125 C 160.46875 111.402344 157.667969 115.402344 153.367188 116.804688 M 123.769531 80.605469 C 125.167969 77.105469 128.96875 75.605469 132.167969 74.105469 C 143.167969 69.804688 155.167969 71.902344 166.570313 72.703125 C 158.867188 76.605469 151.867188 81.902344 143.570313 84.402344 C 138.769531 86.203125 133.570313 86.105469 128.570313 85.703125 C 126.167969 85.402344 122.867188 83.402344 123.769531 80.605469 M 126.867188 56.902344 C 134.269531 55.503906 141.867188 56.703125 148.867188 59.203125 C 142.269531 55.105469 134.96875 50.203125 132.867188 42.203125 C 132.46875 37.902344 137.769531 37.804688 140.667969 39.003906 C 153.667969 43.304688 160.667969 56.003906 167.769531 66.804688 C 162.167969 64.703125 156.570313 62.105469 150.867188 60.203125 C 155.867188 63.902344 161.570313 66.304688 166.769531 69.605469 C 156.070313 69.703125 145.167969 72.304688 134.667969 68.902344 C 130.867188 67.503906 126.667969 65.804688 124.269531 62.304688 C 122.867188 60.203125 124.367188 57.203125 126.867188 56.902344 M 150.867188 25.605469 C 154.769531 24.402344 157.867188 27.804688 160.070313 30.503906 C 167.867188 40.105469 168.46875 53.003906 170.269531 64.804688 C 162.769531 56.402344 153.46875 48.703125 150.269531 37.503906 C 149.070313 33.703125 147.667969 28.804688 150.867188 25.605469 M 166.96875 32.203125 C 167.667969 28.105469 168.269531 23.304688 171.96875 20.804688 C 175.769531 19.605469 177.867188 23.804688 178.570313 26.804688 C 182.570313 39.503906 176.96875 52.203125 173.367188 64.304688 C 170.269531 53.902344 165.667969 43.304688 166.96875 32.203125 M 196.667969 25.605469 C 200.269531 34.402344 194.269531 43.105469 189.96875 50.503906 C 195.367188 45.003906 201.46875 39.304688 209.367188 38.402344 C 211.96875 37.804688 214.867188 40.105469 213.867188 42.902344 C 211.367188 50.503906 204.269531 55.203125 197.867188 59.304688 C 204.867188 56.703125 212.367188 55.503906 219.769531 56.902344 C 221.867188 57.605469 223.96875 59.703125 222.667969 62.003906 C 220.367188 65.703125 216.167969 67.402344 212.269531 68.902344 C 201.769531 72.304688 190.667969 69.804688 179.96875 69.605469 C 185.167969 66.304688 190.867188 63.902344 195.867188 60.203125 C 190.070313 62.203125 184.570313 64.605469 178.96875 66.703125 C 182.167969 61.203125 186.367188 56.304688 189.769531 50.902344 C 185.070313 55.203125 180.867188 60.105469 176.46875 64.703125 C 178.269531 53.804688 178.667969 42.203125 184.96875 32.703125 C 187.570313 28.902344 191.367188 24.304688 196.667969 25.605469 M 222.96875 82.703125 C 219.96875 87.203125 213.867188 85.703125 209.367188 85.804688 C 198.46875 84.605469 189.570313 77.503906 180.070313 72.703125 C 192.167969 71.902344 205.070313 69.605469 216.46875 75.003906 C 219.367188 76.503906 223.46875 78.804688 222.96875 82.703125 M 213.867188 101.703125 C 212.867188 103.203125 211.167969 104.105469 209.367188 103.804688 C 201.867188 103.105469 196.269531 97.605469 190.867188 92.902344 C 193.867188 98.304688 197.167969 103.902344 197.769531 110.203125 C 198.070313 112.605469 197.667969 115.605469 195.269531 116.804688 C 191.070313 117.304688 188.269531 113.605469 185.867188 110.703125 C 178.570313 101.105469 178.367188 88.503906 176.367188 77.105469 C 181.269531 82.203125 185.570313 87.703125 190.667969 92.503906 C 186.769531 86.703125 182.46875 81.203125 178.769531 75.304688 C 189.070313 79.503906 200.667969 82.503906 208.46875 91.105469 C 211.167969 94.003906 214.167969 97.503906 213.867188 101.703125 M 213.167969 110.203125 C 212.96875 131.402344 213.167969 152.605469 213.070313 173.804688 L 273.667969 173.804688 C 273.570313 156.503906 273.570313 139.203125 273.667969 121.804688 C 268.269531 121.804688 262.96875 122.105469 257.667969 121.703125 C 247.867188 120.304688 237.167969 116.605469 232.367188 107.304688 C 230.070313 101.804688 228.070313 95.703125 229.167969 89.703125 C 231.769531 80.605469 238.96875 73.804688 245.070313 66.804688 C 248.667969 63.003906 253.070313 58.503906 252.070313 52.804688 C 251.769531 50.503906 249.269531 50.105469 247.367188 49.902344 C 243.367188 49.003906 241.46875 54.203125 237.570313 54.003906 C 235.867188 52.003906 238.667969 50.902344 239.769531 49.503906 C 243.167969 46.703125 241.46875 40.703125 246.070313 38.902344 C 253.96875 36.105469 261.46875 44.605469 261.070313 52.203125 C 261.769531 58.703125 259.070313 65.003906 255.570313 70.503906 C 252.46875 75.304688 247.667969 79.105469 245.667969 84.605469 C 244.269531 87.804688 246.367188 91.003906 247.570313 93.804688 C 248.070313 90.105469 248.070313 84.804688 252.570313 83.503906 C 259.570313 82.105469 266.867188 80.003906 272.367188 75.203125 C 273.867188 74.003906 273.570313 71.902344 273.667969 70.304688 C 273.570313 56.105469 273.570313 41.902344 273.667969 27.804688 C 267.570313 27.804688 261.46875 27.703125 255.46875 27.503906 C 248.667969 27.203125 242.070313 25.402344 235.367188 25.605469 C 227.96875 25.703125 220.46875 25.703125 213.070313 25.605469 L 213.070313 31.804688 C 199.96875 18.304688 179.667969 12.503906 161.269531 16.703125 C 150.867188 18.804688 141.167969 24.203125 133.769531 31.703125 L 133.769531 25.605469 C 124.96875 25.703125 116.167969 25.605469 107.367188 25.703125 C 101.667969 26.105469 96.070313 27.402344 90.367188 27.503906 C 84.667969 27.703125 78.867188 27.804688 73.167969 27.804688 C 73.269531 41.902344 73.167969 56.105469 73.167969 70.304688 C 73.269531 72.203125 72.96875 74.605469 74.867188 75.703125 C 79.96875 79.804688 86.367188 82.003906 92.667969 83.203125 C 94.867188 83.503906 96.867188 84.605469 97.867188 86.605469 C 98.167969 89.105469 98.070313 91.605469 98.167969 94.105469 C 101.269531 91.402344 101.867188 86.804688 100.570313 83.105469 C 97.46875 77.402344 92.167969 73.203125 89.269531 67.402344 C 87.167969 62.902344 85.367188 58.203125 85.070313 53.203125 C 85.570313 47.402344 88.570313 41.304688 94.070313 38.902344 C 96.769531 38.105469 100.269531 38.003906 102.367188 40.203125 C 105.269531 42.304688 103.667969 46.804688 106.570313 49.003906 C 107.570313 50.605469 111.070313 51.804688 109.269531 54.003906 C 105.867188 54.203125 104.167969 50.703125 101.269531 49.804688 C 99.070313 49.902344 96.96875 50.503906 94.769531 50.902344 C 94.570313 54.304688 94.167969 58.105469 96.667969 60.902344 C 103.167969 69.605469 112.269531 76.703125 116.570313 87.003906 C 119.269531 92.804688 117.46875 99.503906 115.167969 105.203125 C 112.269531 112.902344 104.867188 117.902344 97.167969 119.902344 C 89.46875 122.703125 81.167969 121.804688 73.167969 121.804688 L 73.167969 173.804688 L 133.769531 173.804688 C 133.570313 152.605469 133.867188 131.503906 133.570313 110.304688 C 143.96875 120.804688 158.570313 126.902344 173.367188 126.703125 C 188.167969 126.902344 202.769531 120.703125 213.167969 110.203125 "/>
<path style=" stroke:none;fill-rule:nonzero;fill:rgb(99.21875%,99.609375%,99.21875%);fill-opacity:1;" d="M 183.167969 324.703125 C 175.96875 320.804688 168.769531 316.902344 161.667969 312.902344 C 163.46875 304.902344 165.167969 296.804688 166.867188 288.703125 C 175.070313 287.402344 183.367188 286.402344 191.667969 285.503906 C 194.867188 293.003906 198.46875 300.304688 201.667969 307.902344 C 195.167969 313.203125 189.46875 319.203125 183.167969 324.703125 M 219.46875 299.503906 C 218.46875 293.203125 216.167969 287.304688 213.367188 281.703125 C 207.167969 282.304688 201.46875 279.605469 195.769531 277.703125 C 190.070313 273.703125 185.269531 268.402344 179.769531 264.105469 C 181.070313 262.703125 182.269531 261.304688 183.570313 259.902344 C 172.96875 257.503906 161.769531 258.703125 151.96875 263.402344 C 154.167969 264.503906 156.46875 265.503906 158.667969 266.703125 C 155.769531 271.703125 155.269531 278.605469 149.867188 281.703125 C 145.46875 284.804688 140.96875 287.804688 136.570313 290.902344 C 134.96875 288.105469 133.367188 285.304688 131.46875 282.703125 C 125.667969 293.203125 124.070313 305.902344 126.96875 317.703125 C 129.46875 314.804688 131.769531 311.902344 134.269531 309.105469 C 138.667969 312.605469 143.96875 315.304688 147.769531 319.703125 C 148.867188 325.105469 148.96875 330.703125 149.070313 336.304688 C 145.867188 337.105469 142.769531 338.203125 139.570313 339.203125 C 148.167969 347.703125 160.070313 353.203125 172.269531 352.804688 C 170.667969 350.402344 169.070313 348.105469 167.367188 345.902344 C 172.367188 343.304688 177.367188 340.804688 182.46875 338.402344 C 184.96875 336.902344 187.96875 337.804688 190.667969 338.203125 C 194.769531 339.105469 199.367188 339.203125 202.667969 342.203125 C 207.570313 338.003906 211.367188 332.902344 214.667969 327.402344 C 213.867188 326.003906 212.867188 324.703125 212.667969 323.105469 C 211.96875 318.304688 211.367188 313.402344 211.867188 308.605469 C 213.570313 305.105469 214.96875 300.203125 219.46875 299.503906 "/>
</g>
</svg>
